<svg width="383" height="62" viewBox="0 0 383 62" fill="none" xmlns="http://www.w3.org/2000/svg">
<g clip-path="url(#clip0_4_595)">
<path d="M171.557 45.3798H192.444L193.355 40.272H179.003L179.913 35.1323H192.229L193.1 30.1362H180.784L181.619 25.4315H195.716L196.622 20.3276H175.989L171.557 45.3798Z" fill="url(#paint0_linear_4_595)"/>
<path d="M215.26 35.531C214.97 37.1352 214.31 38.4002 213.28 39.322C212.25 40.2478 210.91 40.7067 209.265 40.7067C207.837 40.7067 206.772 40.3675 206.068 39.6851C205.365 39.0067 205.015 38.057 205.015 36.8399C205.015 36.6204 205.035 36.393 205.07 36.1495C205.106 35.9061 205.138 35.6867 205.162 35.4911L207.814 20.3233H201.31L198.658 35.4193C198.586 35.8343 198.531 36.2333 198.495 36.6204C198.459 37.0115 198.439 37.3866 198.439 37.7497C198.439 40.4233 199.358 42.4345 201.198 43.7833C203.039 45.1321 205.607 45.8065 208.899 45.8065C211.296 45.8065 213.379 45.4434 215.148 44.7131C216.914 43.9829 218.357 42.8775 219.47 41.397C220.583 39.9166 221.334 38.065 221.724 35.8543L224.447 20.3193H217.943L215.256 35.523L215.26 35.531Z" fill="url(#paint1_linear_4_595)"/>
<path d="M291.845 21.002C290.111 20.2598 288.012 19.8887 285.54 19.8887C282.681 19.8887 280.228 20.3795 278.185 21.3651C276.137 22.3508 274.492 23.7834 273.243 25.6669C271.995 27.5504 271.144 29.8529 270.683 32.5744C270.588 33.1331 270.508 33.6877 270.448 34.2344C270.389 34.7811 270.357 35.3358 270.357 35.8945C270.357 38.0812 270.81 39.9129 271.721 41.3814C272.627 42.8539 273.947 43.9592 275.68 44.6975C277.414 45.4397 279.501 45.8108 281.946 45.8108C284.78 45.8108 287.225 45.32 289.284 44.3343C291.344 43.3487 293.01 41.9081 294.278 40.0126C295.55 38.1172 296.417 35.7947 296.874 33.0493C296.969 32.5145 297.045 31.9798 297.092 31.4451C297.14 30.9104 297.164 30.3876 297.164 29.8768C297.164 27.6661 296.711 25.8185 295.8 24.3341C294.894 22.8536 293.57 21.7403 291.841 20.998L291.845 21.002ZM290.461 30.5752C290.449 30.7468 290.425 30.9582 290.39 31.2136C290.354 31.469 290.306 31.7923 290.243 32.1793C290.183 32.5704 290.103 33.0413 290.008 33.5999C289.813 34.7173 289.503 35.7149 289.082 36.5888C288.656 37.4627 288.124 38.205 287.484 38.8115C286.84 39.4181 286.084 39.8849 285.214 40.2161C284.343 40.5434 283.361 40.707 282.272 40.707C281.111 40.707 280.141 40.4995 279.366 40.0885C278.59 39.6734 278.01 39.0908 277.62 38.3366C277.231 37.5824 277.04 36.6846 277.04 35.6391C277.04 35.4675 277.044 35.2999 277.06 35.1283C277.072 34.9567 277.092 34.7452 277.115 34.4898C277.139 34.2344 277.183 33.9112 277.243 33.5241C277.302 33.1331 277.382 32.6502 277.477 32.0636C277.672 30.9702 277.978 29.9846 278.403 29.1107C278.825 28.2367 279.358 27.4865 280.002 26.868C280.642 26.2495 281.401 25.7786 282.272 25.4634C283.142 25.1481 284.112 24.9885 285.178 24.9885C286.339 24.9885 287.313 25.188 288.104 25.5911C288.891 25.9941 289.483 26.5767 289.885 27.3429C290.286 28.109 290.485 29.0149 290.485 30.0604C290.485 30.232 290.477 30.3996 290.465 30.5712L290.461 30.5752Z" fill="url(#paint2_linear_4_595)"/>
<path d="M318.346 32.8698C318.298 33.2329 318.238 33.636 318.163 34.0709C318.091 34.5099 318.028 34.9448 317.98 35.3838L317.797 35.4556C317.626 35.1404 317.439 34.7852 317.233 34.3981C317.026 34.0071 316.807 33.62 316.577 33.2329C316.346 32.8418 316.135 32.4907 315.941 32.1754L309.146 20.3237H303.406L298.973 45.3759H305.04L307.147 33.197C307.194 32.8578 307.266 32.4149 307.365 31.8682C307.461 31.3215 307.536 30.8187 307.584 30.3558L307.767 30.3199C308.009 30.7588 308.288 31.2656 308.602 31.8522C308.916 32.4388 309.182 32.9097 309.401 33.2728L316.449 45.3799H322.154L326.551 20.3277H320.52L318.342 32.8698H318.346Z" fill="url(#paint3_linear_4_595)"/>
<path d="M327.569 45.3798H348.456L349.367 40.272H335.015L335.925 35.1323H348.242L349.112 30.1362H336.796L337.631 25.4315H351.728L352.635 20.3276H332.002L327.569 45.3798Z" fill="url(#paint4_linear_4_595)"/>
<path d="M366.366 29.7372H366.187L362.009 20.3276H354.996L362.116 35.4595L360.375 45.3798H366.875L368.62 35.4595L380.972 20.3276H373.669L366.366 29.7372Z" fill="url(#paint5_linear_4_595)"/>
<path d="M225.393 13.7675L226.336 8.95898H181.603H175.294H170.988L160.369 22.6383H160.107L154.032 8.95898H143.839L154.191 30.9585L151.655 45.38H161.109L163.645 30.9585L177.679 13.7675H225.393Z" fill="url(#paint6_linear_4_595)"/>
<path d="M272.186 8.95866H258.347L251.008 25.1281C250.618 25.978 250.233 26.8879 249.847 27.8575C249.462 28.8312 249.08 29.7849 248.714 30.7227C248.344 31.6605 247.983 32.5703 247.629 33.4522H247.259C247.223 32.6022 247.172 31.6565 247.1 30.615C247.028 29.5735 246.957 28.5559 246.889 27.5662C246.818 26.5766 246.746 25.7825 246.679 25.1799L245.092 8.95866H231.838L225.394 45.3797H234.215L237.332 27.5662C237.471 26.7522 237.602 25.7985 237.73 24.7011C237.853 23.6077 237.956 22.4824 238.048 21.3331C238.135 20.1839 238.215 19.1543 238.286 18.2325H238.656C238.692 18.867 238.743 19.6212 238.815 20.4832C238.887 21.3491 238.938 22.1552 238.974 22.8974L241.141 45.3757H249.116L259.575 22.634C259.75 22.2469 259.945 21.784 260.156 21.2533C260.366 20.7226 260.585 20.1759 260.816 19.6092C261.046 19.0466 261.229 18.5677 261.372 18.1767H261.742C261.567 18.8111 261.356 19.6811 261.11 20.7745C260.863 21.8678 260.617 23.0211 260.37 24.2182C260.124 25.4194 259.913 26.5327 259.738 27.5583L256.57 45.3717H265.757L271.351 13.7592H382.07L383.012 8.95068H272.198L272.186 8.95866Z" fill="url(#paint7_linear_4_595)"/>
<path d="M29.0493 56.2578L10.3642 17.6699H0L21.464 62.0001L73.2574 50.0766L29.0493 56.2578Z" fill="url(#paint8_linear_4_595)"/>
<path d="M38.5627 47.4228L19.8777 8.83496H9.51343L30.9774 53.1651L82.7668 47.4228H38.5627Z" fill="url(#paint9_linear_4_595)"/>
<path d="M136.325 39.4062H91.7953C90.4396 39.4062 89.3424 38.3048 89.3424 36.944C89.3424 35.5833 90.4396 34.4819 91.7953 34.4819H123.564C124.92 34.4819 126.017 33.3806 126.017 32.0198C126.017 30.659 124.92 29.5577 123.564 29.5577H100.991C99.6351 29.5577 98.5378 28.4563 98.5378 27.0956C98.5378 25.7348 99.6351 24.6334 100.991 24.6334H106.397C107.753 24.6334 108.85 23.5321 108.85 22.1713C108.85 20.8106 107.753 19.7092 106.397 19.7092H73.5555C72.1998 19.7092 71.1026 18.6078 71.1026 17.2471C71.1026 15.8863 72.1998 14.7849 73.5555 14.7849H111.236C112.591 14.7849 113.689 13.6836 113.689 12.3228C113.689 10.9621 112.591 9.8607 111.236 9.8607H88.0782C86.7225 9.8607 85.6252 8.75933 85.6252 7.39858C85.6252 6.03782 86.7225 4.93645 88.0782 4.93645H122.387C123.743 4.93645 124.84 3.83508 124.84 2.47433C124.84 1.11358 123.743 0.012207 122.387 0.012207H19.0229L40.4869 44.3424H136.321C137.677 44.3424 138.774 43.241 138.774 41.8803C138.774 40.5195 137.677 39.4181 136.321 39.4181L136.325 39.4062Z" fill="url(#paint10_linear_4_595)"/>
<path d="M48.5135 5.34326H43.7468C43.6276 5.34326 43.5481 5.39514 43.5282 5.49091L41.8863 12.989H41.7392L34.5594 5.59865C34.4123 5.44701 34.2055 5.34326 34.0425 5.34326H28.7749C28.4927 5.34326 28.4728 5.63457 28.7392 5.89395L40.6499 17.5741C40.7254 17.6499 40.7851 17.7337 40.8129 17.8135L43.6156 25.3036C43.7071 25.551 44.0291 25.7825 44.2796 25.7825H48.8117C48.9985 25.7825 49.082 25.6548 49.0105 25.4712L46.1361 17.7856C46.1123 17.7217 46.1083 17.6619 46.1202 17.614L49.1933 5.99371C49.2609 5.73832 48.8475 5.34326 48.5095 5.34326H48.5135Z" fill="white"/>
<path d="M62.9209 15.9221C62.257 15.2038 61.4858 14.6093 60.6151 14.1424C59.7445 13.6755 58.8301 13.3283 57.8839 13.1009C57.6295 13.041 57.375 12.9891 57.1206 12.9452C56.8781 12.9053 56.6117 12.6938 56.5322 12.4743L55.0533 8.52378C54.9619 8.27637 54.6399 8.04492 54.3894 8.04492H51.6224C51.4356 8.04492 51.3521 8.17262 51.4237 8.35618L53.0258 12.6419C53.0854 12.8016 53.0258 12.9213 52.8827 12.9492C52.6481 12.9931 52.4215 13.041 52.2029 13.1009C51.3601 13.3283 50.6802 13.6954 50.1594 14.1982C49.6386 14.705 49.3325 15.3674 49.2331 16.1855C49.1337 17.0075 49.3007 17.9972 49.7341 19.1584C50.1396 20.2438 50.6643 21.1417 51.3004 21.848C51.9405 22.5543 52.6481 23.1289 53.4273 23.5719C54.2065 24.0148 55.0136 24.362 55.8484 24.6134C56.6833 24.8648 57.5023 25.0922 58.3053 25.2957C59.1004 25.4713 59.8518 25.6549 60.5555 25.8464C61.2631 26.034 61.8595 26.2694 62.3485 26.5488C62.8375 26.8281 63.1793 27.2311 63.3781 27.7619C63.557 28.2407 63.5371 28.6078 63.3185 28.8592C63.0998 29.1106 62.7858 29.2902 62.3763 29.39C61.9668 29.4897 61.5613 29.5416 61.1677 29.5416C60.627 29.5416 60.0943 29.4618 59.5775 29.2942C59.0567 29.1306 58.5876 28.8672 58.1702 28.5001C57.7527 28.133 57.4267 27.6741 57.2001 27.1194C57.1803 27.0675 57.1604 27.0116 57.1365 26.9478C57.1127 26.884 57.0928 26.8281 57.0729 26.7762H52.2307C52.2387 26.852 52.2585 26.9358 52.2903 27.0236C52.3221 27.1114 52.3579 27.2072 52.3977 27.3069C52.7833 28.3405 53.3279 29.2503 54.0276 30.0324C54.7273 30.8146 55.5344 31.473 56.4527 31.9997C57.3711 32.5305 58.353 32.9335 59.4066 33.2128C59.7325 33.3006 60.0585 33.3725 60.3885 33.4283C60.627 33.4722 60.8894 33.6837 60.9689 33.8952L62.4558 37.8657C62.5472 38.1131 62.8693 38.3446 63.1197 38.3446H65.8867C66.0735 38.3446 66.157 38.2169 66.0855 38.0333L64.4952 33.7795C64.4356 33.6159 64.4953 33.4962 64.6463 33.4722C64.9683 33.4243 65.2784 33.3605 65.5726 33.2847C66.4472 33.0572 67.1509 32.6861 67.6836 32.1673C68.2203 31.6486 68.5304 30.9542 68.6219 30.0843C68.7133 29.2144 68.5225 28.1489 68.0494 26.884C67.5485 25.5471 66.9203 24.4937 66.165 23.7235C65.4096 22.9533 64.5748 22.3747 63.6683 21.9836C62.7619 21.5926 61.8396 21.2893 60.9053 21.0738C59.9751 20.8623 59.0885 20.6548 58.2457 20.4513C58.2377 20.4513 58.2298 20.4473 58.2218 20.4433C57.5977 20.2677 57.0252 20.1041 56.5044 19.9565C55.9796 19.8048 55.5344 19.6093 55.1766 19.3699C54.8148 19.1305 54.5643 18.8192 54.4252 18.4401C54.3139 18.1368 54.294 17.8854 54.3775 17.6819C54.457 17.4784 54.6041 17.3228 54.8108 17.2071C55.0176 17.0953 55.2601 17.0035 55.5383 16.9437C55.8166 16.8798 56.1108 16.8479 56.4249 16.8479C56.902 16.8479 57.3711 16.9317 57.8283 17.0953C58.2855 17.2589 58.679 17.4784 59.013 17.7577C59.3469 18.0371 59.5934 18.3882 59.7524 18.8192L59.8637 19.1225H64.372C64.5469 19.1225 64.6344 19.0068 64.5827 18.8392C64.543 18.6995 64.4952 18.5678 64.4515 18.4401C64.0937 17.4824 63.5809 16.6404 62.917 15.9221H62.9209Z" fill="white"/>
</g>
<defs>
<linearGradient id="paint0_linear_4_595" x1="136.337" y1="27.6063" x2="378.076" y2="53.9708" gradientUnits="userSpaceOnUse">
<stop stop-color="#00C6DB"/>
<stop offset="1" stop-color="#96E148"/>
</linearGradient>
<linearGradient id="paint1_linear_4_595" x1="136.691" y1="24.3497" x2="378.434" y2="50.7143" gradientUnits="userSpaceOnUse">
<stop stop-color="#00C6DB"/>
<stop offset="1" stop-color="#96E148"/>
</linearGradient>
<linearGradient id="paint2_linear_4_595" x1="137.518" y1="16.7841" x2="379.257" y2="43.1486" gradientUnits="userSpaceOnUse">
<stop stop-color="#00C6DB"/>
<stop offset="1" stop-color="#96E148"/>
</linearGradient>
<linearGradient id="paint3_linear_4_595" x1="137.86" y1="13.6317" x2="379.602" y2="40.0002" gradientUnits="userSpaceOnUse">
<stop stop-color="#00C6DB"/>
<stop offset="1" stop-color="#96E148"/>
</linearGradient>
<linearGradient id="paint4_linear_4_595" x1="138.186" y1="10.6667" x2="379.924" y2="37.0312" gradientUnits="userSpaceOnUse">
<stop stop-color="#00C6DB"/>
<stop offset="1" stop-color="#96E148"/>
</linearGradient>
<linearGradient id="paint5_linear_4_595" x1="138.548" y1="7.34662" x2="380.286" y2="33.7111" gradientUnits="userSpaceOnUse">
<stop stop-color="#00C6DB"/>
<stop offset="1" stop-color="#96E148"/>
</linearGradient>
<linearGradient id="paint6_linear_4_595" x1="137.009" y1="21.4572" x2="378.748" y2="47.8217" gradientUnits="userSpaceOnUse">
<stop stop-color="#00C6DB"/>
<stop offset="1" stop-color="#96E148"/>
</linearGradient>
<linearGradient id="paint7_linear_4_595" x1="138.373" y1="8.94669" x2="380.111" y2="35.3112" gradientUnits="userSpaceOnUse">
<stop stop-color="#00C6DB"/>
<stop offset="1" stop-color="#96E148"/>
</linearGradient>
<linearGradient id="paint8_linear_4_595" x1="0" y1="39.837" x2="73.2574" y2="39.837" gradientUnits="userSpaceOnUse">
<stop stop-color="#00C6DB"/>
<stop offset="1" stop-color="#96E148"/>
</linearGradient>
<linearGradient id="paint9_linear_4_595" x1="9.51343" y1="31.002" x2="82.7668" y2="31.002" gradientUnits="userSpaceOnUse">
<stop stop-color="#00C6DB"/>
<stop offset="1" stop-color="#96E148"/>
</linearGradient>
<linearGradient id="paint10_linear_4_595" x1="19.0229" y1="22.1673" x2="138.778" y2="22.1673" gradientUnits="userSpaceOnUse">
<stop stop-color="#00C6DB"/>
<stop offset="1" stop-color="#96E148"/>
</linearGradient>
<clipPath id="clip0_4_595">
<rect width="383" height="62" fill="white"/>
</clipPath>
</defs>
</svg>
